<svg width="217" height="24" viewBox="0 0 217 24" fill="none" xmlns="http://www.w3.org/2000/svg">
<path d="M88.0547 5.00402L88.2107 4.65602C88.9227 4.66402 89.5027 4.77202 89.9507 4.98002C90.4067 5.18802 90.7387 5.46802 90.9467 5.82002C91.1627 6.17202 91.2707 6.56802 91.2707 7.00802C91.2707 7.48802 91.1547 7.91202 90.9227 8.28002C90.6987 8.64802 90.3667 8.94002 89.9267 9.15602C89.4867 9.36402 88.9387 9.46802 88.2827 9.46802H82.2827L82.9907 4.84802L82.2827 0.468017H88.0667C88.8987 0.468017 89.5387 0.664017 89.9867 1.05602C90.4427 1.44002 90.6707 1.97202 90.6707 2.65202C90.6707 3.01202 90.5827 3.36402 90.4067 3.70802C90.2387 4.04402 89.9627 4.33202 89.5787 4.57202C89.2027 4.80402 88.6947 4.94802 88.0547 5.00402ZM83.8787 9.02402L83.2667 8.19602H88.1027C88.5987 8.19602 88.9827 8.08402 89.2547 7.86002C89.5347 7.62802 89.6747 7.30002 89.6747 6.87602C89.6747 6.42802 89.5107 6.08002 89.1827 5.83202C88.8627 5.58402 88.3867 5.46002 87.7547 5.46002H83.8547V4.23602H87.5987C88.0227 4.23602 88.3747 4.12002 88.6547 3.88802C88.9347 3.64802 89.0747 3.30802 89.0747 2.86802C89.0747 2.54002 88.9587 2.27202 88.7267 2.06402C88.4947 1.84802 88.1587 1.74002 87.7187 1.74002H83.2667L83.8787 0.912017L84.5147 4.84802L83.8787 9.02402ZM98.9108 9.46802L98.6468 6.94802L98.9588 6.07202L98.6468 5.20802L98.9108 2.67602H100.519L100.159 6.07202L100.519 9.46802H98.9108ZM99.3908 6.07202C99.2388 6.78402 98.9868 7.40802 98.6348 7.94402C98.2828 8.48002 97.8468 8.89602 97.3268 9.19202C96.8148 9.48802 96.2428 9.63602 95.6108 9.63602C94.9468 9.63602 94.3588 9.48802 93.8468 9.19202C93.3348 8.88802 92.9348 8.46802 92.6468 7.93202C92.3588 7.39602 92.2148 6.77602 92.2148 6.07202C92.2148 5.36002 92.3588 4.74002 92.6468 4.21202C92.9348 3.67602 93.3348 3.26002 93.8468 2.96402C94.3588 2.66002 94.9468 2.50802 95.6108 2.50802C96.2428 2.50802 96.8148 2.65602 97.3268 2.95202C97.8468 3.24802 98.2828 3.66402 98.6348 4.20002C98.9948 4.72802 99.2468 5.35202 99.3908 6.07202ZM93.7988 6.07202C93.7988 6.52802 93.8908 6.93202 94.0748 7.28402C94.2668 7.62802 94.5268 7.90002 94.8548 8.10002C95.1828 8.29202 95.5588 8.38802 95.9828 8.38802C96.4148 8.38802 96.8148 8.29202 97.1828 8.10002C97.5508 7.90002 97.8748 7.62802 98.1548 7.28402C98.4428 6.93202 98.6708 6.52802 98.8388 6.07202C98.6708 5.61602 98.4428 5.21602 98.1548 4.87202C97.8748 4.52002 97.5508 4.24802 97.1828 4.05602C96.8148 3.85602 96.4148 3.75602 95.9828 3.75602C95.5588 3.75602 95.1828 3.85602 94.8548 4.05602C94.5268 4.24802 94.2668 4.52002 94.0748 4.87202C93.8908 5.21602 93.7988 5.61602 93.7988 6.07202ZM109.052 7.40402C109.052 7.86002 108.924 8.25602 108.668 8.59202C108.412 8.92802 108.024 9.18802 107.504 9.37202C106.984 9.54802 106.332 9.63602 105.548 9.63602C104.74 9.63602 104.04 9.53602 103.448 9.33602C102.856 9.12802 102.396 8.84002 102.068 8.47202C101.748 8.09602 101.576 7.66402 101.552 7.17602H103.136C103.184 7.43202 103.312 7.66002 103.52 7.86002C103.736 8.05202 104.016 8.20002 104.36 8.30402C104.712 8.40802 105.112 8.46002 105.56 8.46002C106.208 8.46002 106.696 8.38402 107.024 8.23202C107.352 8.07202 107.516 7.83202 107.516 7.51202C107.516 7.29602 107.404 7.13202 107.18 7.02002C106.964 6.90802 106.552 6.82402 105.944 6.76802L104.612 6.64802C103.892 6.58402 103.324 6.45602 102.908 6.26402C102.492 6.06402 102.196 5.82402 102.02 5.54402C101.844 5.25602 101.756 4.95202 101.756 4.63202C101.756 4.16802 101.9 3.78002 102.188 3.46802C102.476 3.15602 102.876 2.92002 103.388 2.76002C103.9 2.59202 104.496 2.50802 105.176 2.50802C105.88 2.50802 106.508 2.60802 107.06 2.80802C107.612 3.00002 108.052 3.27202 108.38 3.62402C108.708 3.96802 108.892 4.36802 108.932 4.82402H107.348C107.316 4.64002 107.22 4.46402 107.06 4.29602C106.908 4.12002 106.672 3.97602 106.352 3.86402C106.04 3.74402 105.62 3.68402 105.092 3.68402C104.532 3.68402 104.092 3.75602 103.772 3.90002C103.46 4.04402 103.304 4.25602 103.304 4.53602C103.304 4.71202 103.4 4.86402 103.592 4.99202C103.784 5.11202 104.14 5.19602 104.66 5.24402L106.376 5.40002C107.064 5.46402 107.6 5.58802 107.984 5.77202C108.376 5.94802 108.652 6.17602 108.812 6.45602C108.972 6.73602 109.052 7.05202 109.052 7.40402ZM114.025 9.63602C113.233 9.63602 112.529 9.48802 111.913 9.19202C111.297 8.88802 110.813 8.46802 110.461 7.93202C110.109 7.39602 109.933 6.77202 109.933 6.06002C109.933 5.35602 110.097 4.74002 110.425 4.21202C110.761 3.67602 111.221 3.26002 111.805 2.96402C112.397 2.66002 113.073 2.50802 113.833 2.50802C114.593 2.50802 115.249 2.68002 115.801 3.02402C116.361 3.36002 116.793 3.83602 117.097 4.45202C117.401 5.06802 117.553 5.79202 117.553 6.62402H111.157V5.43602H116.773L115.993 5.88002C115.969 5.43202 115.861 5.04802 115.669 4.72802C115.485 4.40802 115.233 4.16402 114.913 3.99602C114.601 3.82002 114.229 3.73202 113.797 3.73202C113.341 3.73202 112.941 3.82402 112.597 4.00802C112.261 4.19202 111.997 4.45202 111.805 4.78802C111.613 5.11602 111.517 5.50802 111.517 5.96402C111.517 6.46802 111.629 6.90402 111.853 7.27202C112.085 7.64002 112.409 7.92402 112.825 8.12402C113.249 8.31602 113.749 8.41202 114.325 8.41202C114.845 8.41202 115.377 8.33202 115.921 8.17202C116.465 8.00402 116.945 7.77202 117.361 7.47602V8.60402C116.945 8.92402 116.437 9.17602 115.837 9.36002C115.245 9.54402 114.641 9.63602 114.025 9.63602ZM125.197 9.46802L124.933 6.88802L125.281 6.08402L124.945 5.16002L125.449 0.228017H127.057L126.445 5.97602L126.793 9.46802H125.197ZM125.653 6.07202C125.501 6.78402 125.249 7.40802 124.897 7.94402C124.545 8.48002 124.109 8.89602 123.589 9.19202C123.077 9.48802 122.505 9.63602 121.873 9.63602C121.209 9.63602 120.621 9.48802 120.109 9.19202C119.597 8.88802 119.197 8.46802 118.909 7.93202C118.621 7.39602 118.477 6.77602 118.477 6.07202C118.477 5.36002 118.621 4.74002 118.909 4.21202C119.197 3.67602 119.597 3.26002 120.109 2.96402C120.621 2.66002 121.209 2.50802 121.873 2.50802C122.505 2.50802 123.077 2.65602 123.589 2.95202C124.109 3.24802 124.545 3.66402 124.897 4.20002C125.257 4.72802 125.509 5.35202 125.653 6.07202ZM120.061 6.07202C120.061 6.52802 120.153 6.93202 120.337 7.28402C120.529 7.62802 120.789 7.90002 121.117 8.10002C121.445 8.29202 121.821 8.38802 122.245 8.38802C122.677 8.38802 123.077 8.29202 123.445 8.10002C123.813 7.90002 124.137 7.62802 124.417 7.28402C124.705 6.93202 124.933 6.52802 125.101 6.07202C124.933 5.61602 124.705 5.21602 124.417 4.87202C124.137 4.52002 123.813 4.24802 123.445 4.05602C123.077 3.85602 122.677 3.75602 122.245 3.75602C121.821 3.75602 121.445 3.85602 121.117 4.05602C120.789 4.24802 120.529 4.52002 120.337 4.87202C120.153 5.21602 120.061 5.61602 120.061 6.07202ZM131.469 2.62802L132.249 2.77202L133.029 2.62802V9.46802H131.469V2.62802ZM132.249 1.77602C131.953 1.77602 131.709 1.69602 131.517 1.53602C131.325 1.36802 131.229 1.15202 131.229 0.888017C131.229 0.624017 131.325 0.412017 131.517 0.252017C131.709 0.0840173 131.953 1.71661e-05 132.249 1.71661e-05C132.553 1.71661e-05 132.797 0.0840173 132.981 0.252017C133.173 0.412017 133.269 0.624017 133.269 0.888017C133.269 1.15202 133.173 1.36802 132.981 1.53602C132.797 1.69602 132.553 1.77602 132.249 1.77602ZM134.356 2.67602H135.916L136.324 5.12402V9.46802H134.764V4.89602L134.356 2.67602ZM139.024 2.50802C139.664 2.50802 140.208 2.63602 140.656 2.89202C141.104 3.14802 141.444 3.51602 141.676 3.99602C141.916 4.46802 142.036 5.04002 142.036 5.71202V9.46802H140.476V5.96402C140.476 5.25202 140.308 4.71602 139.972 4.35602C139.644 3.98802 139.16 3.80402 138.52 3.80402C138.08 3.80402 137.692 3.90402 137.356 4.10402C137.028 4.29602 136.772 4.56802 136.588 4.92002C136.412 5.27202 136.324 5.68402 136.324 6.15602L135.772 5.85602C135.844 5.15202 136.028 4.55202 136.324 4.05602C136.62 3.56002 137 3.18002 137.464 2.91602C137.928 2.64402 138.448 2.50802 139.024 2.50802ZM147.685 7.40402V6.09602H153.973V7.40402H147.685ZM151.861 0.468017L156.181 9.46802H154.489L150.565 1.06802H151.177L147.253 9.46802H145.561L149.881 0.468017H151.861ZM159.614 9.63602C158.99 9.63602 158.458 9.50802 158.018 9.25202C157.586 8.99602 157.254 8.62802 157.022 8.14802C156.79 7.66802 156.674 7.09602 156.674 6.43202V2.67602H158.234V6.19202C158.234 6.89602 158.394 7.43202 158.714 7.80002C159.042 8.16002 159.51 8.34002 160.118 8.34002C160.558 8.34002 160.934 8.24402 161.246 8.05202C161.566 7.86002 161.814 7.58802 161.99 7.23602C162.166 6.87602 162.254 6.46002 162.254 5.98802L162.794 6.28802C162.73 6.98402 162.554 7.58402 162.266 8.08802C161.978 8.58402 161.606 8.96802 161.15 9.24002C160.694 9.50402 160.182 9.63602 159.614 9.63602ZM162.65 9.46802L162.254 7.02002V2.67602H163.814V7.26002L164.21 9.46802H162.65ZM172.591 7.40402C172.591 7.86002 172.463 8.25602 172.207 8.59202C171.951 8.92802 171.563 9.18802 171.043 9.37202C170.523 9.54802 169.871 9.63602 169.087 9.63602C168.279 9.63602 167.579 9.53602 166.987 9.33602C166.395 9.12802 165.935 8.84002 165.607 8.47202C165.287 8.09602 165.115 7.66402 165.091 7.17602H166.675C166.723 7.43202 166.851 7.66002 167.059 7.86002C167.275 8.05202 167.555 8.20002 167.899 8.30402C168.251 8.40802 168.651 8.46002 169.099 8.46002C169.747 8.46002 170.235 8.38402 170.563 8.23202C170.891 8.07202 171.055 7.83202 171.055 7.51202C171.055 7.29602 170.943 7.13202 170.719 7.02002C170.503 6.90802 170.091 6.82402 169.483 6.76802L168.151 6.64802C167.431 6.58402 166.863 6.45602 166.447 6.26402C166.031 6.06402 165.735 5.82402 165.559 5.54402C165.383 5.25602 165.295 4.95202 165.295 4.63202C165.295 4.16802 165.439 3.78002 165.727 3.46802C166.015 3.15602 166.415 2.92002 166.927 2.76002C167.439 2.59202 168.035 2.50802 168.715 2.50802C169.419 2.50802 170.047 2.60802 170.599 2.80802C171.151 3.00002 171.591 3.27202 171.919 3.62402C172.247 3.96802 172.431 4.36802 172.471 4.82402H170.887C170.855 4.64002 170.759 4.46402 170.599 4.29602C170.447 4.12002 170.211 3.97602 169.891 3.86402C169.579 3.74402 169.159 3.68402 168.631 3.68402C168.071 3.68402 167.631 3.75602 167.311 3.90002C166.999 4.04402 166.843 4.25602 166.843 4.53602C166.843 4.71202 166.939 4.86402 167.131 4.99202C167.323 5.11202 167.679 5.19602 168.199 5.24402L169.915 5.40002C170.603 5.46402 171.139 5.58802 171.523 5.77202C171.915 5.94802 172.191 6.17602 172.351 6.45602C172.511 6.73602 172.591 7.05202 172.591 7.40402ZM173.029 3.87602V3.16802L174.481 2.79602L175.129 0.900017H176.041V2.67602H179.197V3.87602H176.041V6.81602C176.041 7.38402 176.161 7.78402 176.401 8.01602C176.649 8.24002 177.049 8.35202 177.601 8.35202C177.953 8.35202 178.265 8.31602 178.537 8.24402C178.809 8.16402 179.069 8.05202 179.317 7.90802V9.19202C179.109 9.29602 178.813 9.39602 178.429 9.49202C178.053 9.58802 177.665 9.63602 177.265 9.63602C176.601 9.63602 176.065 9.52802 175.657 9.31202C175.249 9.08802 174.949 8.78402 174.757 8.40002C174.573 8.00802 174.481 7.56002 174.481 7.05602V3.87602H173.029ZM180.454 2.62802L181.234 2.77202L182.014 2.62802V9.46802H180.454V2.62802ZM181.234 1.77602C180.938 1.77602 180.694 1.69602 180.502 1.53602C180.31 1.36802 180.214 1.15202 180.214 0.888017C180.214 0.624017 180.31 0.412017 180.502 0.252017C180.694 0.0840173 180.938 1.71661e-05 181.234 1.71661e-05C181.538 1.71661e-05 181.782 0.0840173 181.966 0.252017C182.158 0.412017 182.254 0.624017 182.254 0.888017C182.254 1.15202 182.158 1.36802 181.966 1.53602C181.782 1.69602 181.538 1.77602 181.234 1.77602ZM183.341 2.67602H184.901L185.309 5.12402V9.46802H183.749V4.89602L183.341 2.67602ZM188.009 2.50802C188.649 2.50802 189.193 2.63602 189.641 2.89202C190.089 3.14802 190.429 3.51602 190.661 3.99602C190.901 4.46802 191.021 5.04002 191.021 5.71202V9.46802H189.461V5.96402C189.461 5.25202 189.293 4.71602 188.957 4.35602C188.629 3.98802 188.145 3.80402 187.505 3.80402C187.065 3.80402 186.677 3.90402 186.341 4.10402C186.013 4.29602 185.757 4.56802 185.573 4.92002C185.397 5.27202 185.309 5.68402 185.309 6.15602L184.757 5.85602C184.829 5.15202 185.013 4.55202 185.309 4.05602C185.605 3.56002 185.985 3.18002 186.449 2.91602C186.913 2.64402 187.433 2.50802 188.009 2.50802ZM192.235 11.124L193.231 8.97602L193.315 9.54002C193.131 9.54002 192.963 9.49602 192.811 9.40802C192.667 9.32002 192.551 9.20402 192.463 9.06002C192.375 8.90802 192.331 8.74402 192.331 8.56802C192.331 8.38402 192.375 8.22002 192.463 8.07602C192.551 7.93202 192.667 7.82002 192.811 7.74002C192.963 7.65202 193.131 7.60802 193.315 7.60802C193.507 7.60802 193.675 7.65202 193.819 7.74002C193.971 7.82802 194.087 7.94802 194.167 8.10002C194.255 8.25202 194.299 8.42402 194.299 8.61602C194.299 8.80002 194.259 8.99602 194.179 9.20402C194.099 9.40402 193.959 9.66802 193.759 9.99602L193.099 11.124H192.235ZM201.151 1.20002H202.735V9.46802H201.151V1.20002ZM197.431 0.468017H206.455V1.86002H197.431V0.468017ZM212.037 5.23202V4.32002L216.237 9.46802H214.281L211.041 5.38802H211.737L208.485 9.46802H206.577L210.789 4.34402V5.20802L206.877 0.468017H208.845L211.809 4.17602H211.089L214.029 0.468017H215.937L212.037 5.23202ZM7.54798 17.508C7.41198 18.276 7.12398 18.888 6.68398 19.344C6.25198 19.8 5.70398 20.028 5.03998 20.028C4.57598 20.028 4.16398 19.924 3.80398 19.716C3.45198 19.5 3.17198 19.204 2.96398 18.828C2.76398 18.444 2.66398 18.004 2.66398 17.508C2.66398 17.012 2.76398 16.576 2.96398 16.2C3.16398 15.816 3.44398 15.52 3.80398 15.312C4.16398 15.096 4.57598 14.988 5.03998 14.988C5.50398 14.988 5.90798 15.096 6.25198 15.312C6.59598 15.528 6.87598 15.824 7.09198 16.2C7.31598 16.576 7.46798 17.012 7.54798 17.508ZM4.07998 17.508C4.07998 17.932 4.20798 18.276 4.46398 18.54C4.71998 18.796 5.04398 18.924 5.43598 18.924C5.83598 18.924 6.19198 18.792 6.50398 18.528C6.82398 18.264 7.05998 17.924 7.21198 17.508C7.05998 17.092 6.82398 16.752 6.50398 16.488C6.19198 16.224 5.83598 16.092 5.43598 16.092C5.17198 16.092 4.93598 16.152 4.72798 16.272C4.52798 16.392 4.36798 16.56 4.24798 16.776C4.13598 16.984 4.07998 17.228 4.07998 17.508ZM11.292 16.848C11.292 17.464 11.164 18 10.908 18.456C10.652 18.912 10.288 19.268 9.81598 19.524C9.35198 19.772 8.80398 19.896 8.17198 19.896H7.47598L7.07998 18.144L7.29598 17.508L7.06798 16.884L7.35598 15.12H8.79598L8.45998 17.508L8.89198 19.704L8.32798 19.116C8.71198 19.108 9.04398 19.012 9.32398 18.828C9.60398 18.644 9.81998 18.384 9.97198 18.048C10.132 17.704 10.212 17.308 10.212 16.86C10.212 16.164 10.032 15.56 9.67198 15.048C9.31198 14.536 8.80398 14.14 8.14798 13.86C7.49998 13.58 6.73998 13.44 5.86798 13.44C4.91598 13.44 4.08398 13.616 3.37198 13.968C2.65998 14.312 2.10798 14.8 1.71598 15.432C1.32398 16.056 1.12798 16.796 1.12798 17.652C1.12798 18.444 1.31998 19.136 1.70398 19.728C2.09598 20.312 2.64398 20.768 3.34798 21.096C4.05198 21.416 4.87598 21.576 5.81998 21.576C6.26798 21.576 6.72398 21.54 7.18798 21.468C7.65198 21.404 8.09198 21.308 8.50798 21.18C8.93198 21.044 9.29998 20.888 9.61198 20.712V21.756C9.28398 21.916 8.90398 22.056 8.47198 22.176C8.04798 22.296 7.60398 22.388 7.13998 22.452C6.67598 22.516 6.22398 22.548 5.78398 22.548C4.62398 22.548 3.60798 22.344 2.73598 21.936C1.87198 21.536 1.19998 20.968 0.719983 20.232C0.239982 19.496 -1.75685e-05 18.64 -1.75685e-05 17.664C-1.75685e-05 16.88 0.135982 16.172 0.407982 15.54C0.687982 14.9 1.08398 14.352 1.59598 13.896C2.11598 13.44 2.73598 13.088 3.45598 12.84C4.17598 12.592 4.97998 12.468 5.86798 12.468C6.95598 12.468 7.90398 12.652 8.71198 13.02C9.52798 13.38 10.16 13.888 10.608 14.544C11.064 15.2 11.292 15.968 11.292 16.848ZM17.3673 17.604C17.3673 18.14 17.4753 18.604 17.6913 18.996C17.9073 19.388 18.2153 19.692 18.6153 19.908C19.0233 20.116 19.5073 20.22 20.0673 20.22C20.6353 20.22 21.1193 20.116 21.5193 19.908C21.9193 19.692 22.2273 19.388 22.4433 18.996C22.6593 18.604 22.7673 18.14 22.7673 17.604V12.468H24.3513V17.664C24.3513 18.456 24.1713 19.152 23.8113 19.752C23.4513 20.344 22.9513 20.808 22.3113 21.144C21.6713 21.472 20.9233 21.636 20.0673 21.636C19.2193 21.636 18.4713 21.472 17.8233 21.144C17.1833 20.808 16.6833 20.344 16.3233 19.752C15.9633 19.152 15.7833 18.456 15.7833 17.664V12.468H17.3673V17.604ZM25.6766 14.676H27.2366L27.6446 17.124V21.468H26.0846V16.896L25.6766 14.676ZM30.3446 14.508C30.9846 14.508 31.5286 14.636 31.9766 14.892C32.4246 15.148 32.7646 15.516 32.9966 15.996C33.2366 16.468 33.3566 17.04 33.3566 17.712V21.468H31.7966V17.964C31.7966 17.252 31.6286 16.716 31.2926 16.356C30.9646 15.988 30.4806 15.804 29.8406 15.804C29.4006 15.804 29.0126 15.904 28.6766 16.104C28.3486 16.296 28.0926 16.568 27.9086 16.92C27.7326 17.272 27.6446 17.684 27.6446 18.156L27.0926 17.856C27.1646 17.152 27.3486 16.552 27.6446 16.056C27.9406 15.56 28.3206 15.18 28.7846 14.916C29.2486 14.644 29.7686 14.508 30.3446 14.508ZM34.9186 14.628L35.6986 14.772L36.4786 14.628V21.468H34.9186V14.628ZM35.6986 13.776C35.4026 13.776 35.1586 13.696 34.9666 13.536C34.7746 13.368 34.6786 13.152 34.6786 12.888C34.6786 12.624 34.7746 12.412 34.9666 12.252C35.1586 12.084 35.4026 12 35.6986 12C36.0026 12 36.2466 12.084 36.4306 12.252C36.6226 12.412 36.7186 12.624 36.7186 12.888C36.7186 13.152 36.6226 13.368 36.4306 13.536C36.2466 13.696 36.0026 13.776 35.6986 13.776ZM41.9215 20.772H41.3215L44.1055 14.676H45.7735L42.4615 21.468H40.7095L37.3975 14.676H39.1135L41.9215 20.772ZM50.0406 21.636C49.2486 21.636 48.5446 21.488 47.9286 21.192C47.3126 20.888 46.8286 20.468 46.4766 19.932C46.1246 19.396 45.9486 18.772 45.9486 18.06C45.9486 17.356 46.1126 16.74 46.4406 16.212C46.7766 15.676 47.2366 15.26 47.8206 14.964C48.4126 14.66 49.0886 14.508 49.8486 14.508C50.6086 14.508 51.2646 14.68 51.8166 15.024C52.3766 15.36 52.8086 15.836 53.1126 16.452C53.4166 17.068 53.5686 17.792 53.5686 18.624H47.1726V17.436H52.7886L52.0086 17.88C51.9846 17.432 51.8766 17.048 51.6846 16.728C51.5006 16.408 51.2486 16.164 50.9286 15.996C50.6166 15.82 50.2446 15.732 49.8126 15.732C49.3566 15.732 48.9566 15.824 48.6126 16.008C48.2766 16.192 48.0126 16.452 47.8206 16.788C47.6286 17.116 47.5326 17.508 47.5326 17.964C47.5326 18.468 47.6446 18.904 47.8686 19.272C48.1006 19.64 48.4246 19.924 48.8406 20.124C49.2646 20.316 49.7646 20.412 50.3406 20.412C50.8606 20.412 51.3926 20.332 51.9366 20.172C52.4806 20.004 52.9606 19.772 53.3766 19.476V20.604C52.9606 20.924 52.4526 21.176 51.8526 21.36C51.2606 21.544 50.6566 21.636 50.0406 21.636ZM54.5282 14.676H56.0882L56.4962 17.148V21.468H54.9362V16.848L54.5282 14.676ZM59.9402 14.628V15.996C59.7642 15.948 59.5722 15.912 59.3642 15.888C59.1562 15.864 58.9602 15.852 58.7762 15.852C58.3362 15.852 57.9442 15.948 57.6002 16.14C57.2562 16.332 56.9842 16.62 56.7842 17.004C56.5922 17.38 56.4962 17.844 56.4962 18.396L56.1362 17.952C56.1682 17.472 56.2482 17.024 56.3762 16.608C56.5122 16.184 56.6962 15.816 56.9282 15.504C57.1682 15.192 57.4602 14.948 57.8042 14.772C58.1482 14.596 58.5482 14.508 59.0042 14.508C59.1642 14.508 59.3282 14.52 59.4962 14.544C59.6642 14.56 59.8122 14.588 59.9402 14.628ZM67.7904 19.404C67.7904 19.86 67.6624 20.256 67.4064 20.592C67.1504 20.928 66.7624 21.188 66.2424 21.372C65.7224 21.548 65.0704 21.636 64.2864 21.636C63.4784 21.636 62.7784 21.536 62.1864 21.336C61.5944 21.128 61.1344 20.84 60.8064 20.472C60.4864 20.096 60.3144 19.664 60.2904 19.176H61.8744C61.9224 19.432 62.0504 19.66 62.2584 19.86C62.4744 20.052 62.7544 20.2 63.0984 20.304C63.4504 20.408 63.8504 20.46 64.2984 20.46C64.9464 20.46 65.4344 20.384 65.7624 20.232C66.0904 20.072 66.2544 19.832 66.2544 19.512C66.2544 19.296 66.1424 19.132 65.9184 19.02C65.7024 18.908 65.2904 18.824 64.6824 18.768L63.3504 18.648C62.6304 18.584 62.0624 18.456 61.6464 18.264C61.2304 18.064 60.9344 17.824 60.7584 17.544C60.5824 17.256 60.4944 16.952 60.4944 16.632C60.4944 16.168 60.6384 15.78 60.9264 15.468C61.2144 15.156 61.6144 14.92 62.1264 14.76C62.6384 14.592 63.2344 14.508 63.9144 14.508C64.6184 14.508 65.2464 14.608 65.7984 14.808C66.3504 15 66.7904 15.272 67.1184 15.624C67.4464 15.968 67.6304 16.368 67.6704 16.824H66.0864C66.0544 16.64 65.9584 16.464 65.7984 16.296C65.6464 16.12 65.4104 15.976 65.0904 15.864C64.7784 15.744 64.3584 15.684 63.8304 15.684C63.2704 15.684 62.8304 15.756 62.5104 15.9C62.1984 16.044 62.0424 16.256 62.0424 16.536C62.0424 16.712 62.1384 16.864 62.3304 16.992C62.5224 17.112 62.8784 17.196 63.3984 17.244L65.1144 17.4C65.8024 17.464 66.3384 17.588 66.7224 17.772C67.1144 17.948 67.3904 18.176 67.5504 18.456C67.7104 18.736 67.7904 19.052 67.7904 19.404ZM69.0553 14.628L69.8353 14.772L70.6153 14.628V21.468H69.0553V14.628ZM69.8353 13.776C69.5393 13.776 69.2953 13.696 69.1033 13.536C68.9113 13.368 68.8153 13.152 68.8153 12.888C68.8153 12.624 68.9113 12.412 69.1033 12.252C69.2953 12.084 69.5393 12 69.8353 12C70.1393 12 70.3833 12.084 70.5673 12.252C70.7593 12.412 70.8553 12.624 70.8553 12.888C70.8553 13.152 70.7593 13.368 70.5673 13.536C70.3833 13.696 70.1393 13.776 69.8353 13.776ZM71.4982 15.876V15.168L72.9502 14.796L73.5982 12.9H74.5102V14.676H77.6662V15.876H74.5102V18.816C74.5102 19.384 74.6302 19.784 74.8702 20.016C75.1182 20.24 75.5182 20.352 76.0702 20.352C76.4222 20.352 76.7342 20.316 77.0062 20.244C77.2782 20.164 77.5382 20.052 77.7862 19.908V21.192C77.5782 21.296 77.2822 21.396 76.8982 21.492C76.5222 21.588 76.1342 21.636 75.7342 21.636C75.0702 21.636 74.5342 21.528 74.1262 21.312C73.7182 21.088 73.4182 20.784 73.2262 20.4C73.0422 20.008 72.9502 19.56 72.9502 19.056V15.876H71.4982ZM80.4842 23.616C80.0842 23.616 79.7202 23.564 79.3922 23.46C79.0722 23.364 78.7722 23.228 78.4922 23.052V21.864C78.7962 22.056 79.0842 22.196 79.3562 22.284C79.6362 22.372 79.9482 22.416 80.2922 22.416C80.6202 22.416 80.9122 22.34 81.1682 22.188C81.4242 22.044 81.6362 21.788 81.8042 21.42L84.8642 14.676H86.5202L83.0042 21.948C82.8122 22.348 82.5842 22.668 82.3202 22.908C82.0642 23.156 81.7802 23.336 81.4682 23.448C81.1642 23.56 80.8362 23.616 80.4842 23.616ZM81.2642 21.252L78.1442 14.676H79.8602L82.8122 21.252H81.2642ZM93.9871 21.636C93.1631 21.636 92.4391 21.488 91.8151 21.192C91.1991 20.888 90.7151 20.468 90.3631 19.932C90.0191 19.396 89.8471 18.776 89.8471 18.072C89.8471 17.36 90.0191 16.74 90.3631 16.212C90.7151 15.676 91.1991 15.26 91.8151 14.964C92.4391 14.66 93.1631 14.508 93.9871 14.508C94.8111 14.508 95.5311 14.66 96.1471 14.964C96.7711 15.26 97.2551 15.676 97.5991 16.212C97.9511 16.74 98.1271 17.36 98.1271 18.072C98.1271 18.776 97.9511 19.396 97.5991 19.932C97.2551 20.468 96.7711 20.888 96.1471 21.192C95.5311 21.488 94.8111 21.636 93.9871 21.636ZM93.9871 20.412C94.5151 20.412 94.9671 20.316 95.3431 20.124C95.7271 19.932 96.0231 19.664 96.2311 19.32C96.4391 18.968 96.5431 18.552 96.5431 18.072C96.5431 17.592 96.4391 17.18 96.2311 16.836C96.0231 16.484 95.7271 16.212 95.3431 16.02C94.9671 15.828 94.5151 15.732 93.9871 15.732C93.4671 15.732 93.0151 15.828 92.6311 16.02C92.2471 16.212 91.9511 16.484 91.7431 16.836C91.5351 17.18 91.4311 17.592 91.4311 18.072C91.4311 18.552 91.5351 18.968 91.7431 19.32C91.9511 19.664 92.2471 19.932 92.6311 20.124C93.0151 20.316 93.4671 20.412 93.9871 20.412ZM103.429 13.272C102.845 13.272 102.409 13.396 102.121 13.644C101.841 13.892 101.701 14.296 101.701 14.856V21.468H100.141V15C100.141 14.416 100.249 13.904 100.465 13.464C100.689 13.024 101.029 12.68 101.485 12.432C101.949 12.184 102.537 12.06 103.249 12.06C103.593 12.06 103.897 12.088 104.161 12.144C104.425 12.2 104.685 12.272 104.941 12.36V13.584C104.709 13.472 104.469 13.392 104.221 13.344C103.973 13.296 103.709 13.272 103.429 13.272ZM98.6891 16.344V15.144H104.809V16.344H98.6891ZM111.21 13.2H112.794V21.468H111.21V13.2ZM107.49 12.468H116.514V13.86H107.49V12.468ZM119.076 21.636C118.284 21.636 117.58 21.488 116.964 21.192C116.348 20.888 115.864 20.468 115.512 19.932C115.16 19.396 114.984 18.772 114.984 18.06C114.984 17.356 115.148 16.74 115.476 16.212C115.812 15.676 116.272 15.26 116.856 14.964C117.448 14.66 118.124 14.508 118.884 14.508C119.644 14.508 120.3 14.68 120.852 15.024C121.412 15.36 121.844 15.836 122.148 16.452C122.452 17.068 122.604 17.792 122.604 18.624H116.208V17.436H121.824L121.044 17.88C121.02 17.432 120.912 17.048 120.72 16.728C120.536 16.408 120.284 16.164 119.964 15.996C119.652 15.82 119.28 15.732 118.848 15.732C118.392 15.732 117.992 15.824 117.648 16.008C117.312 16.192 117.048 16.452 116.856 16.788C116.664 17.116 116.568 17.508 116.568 17.964C116.568 18.468 116.68 18.904 116.904 19.272C117.136 19.64 117.46 19.924 117.876 20.124C118.3 20.316 118.8 20.412 119.376 20.412C119.896 20.412 120.428 20.332 120.972 20.172C121.516 20.004 121.996 19.772 122.412 19.476V20.604C121.996 20.924 121.488 21.176 120.888 21.36C120.296 21.544 119.692 21.636 119.076 21.636ZM122.73 21.468L126.006 17.592L125.994 18.36L122.922 14.676H124.71L127.038 17.436H126.378L128.718 14.676H130.446L127.314 18.384L127.254 17.484L130.638 21.468H128.85L126.306 18.492H126.99L124.47 21.468H122.73ZM137.325 21.468L137.061 18.948L137.373 18.072L137.061 17.208L137.325 14.676H138.933L138.573 18.072L138.933 21.468H137.325ZM137.805 18.072C137.653 18.784 137.401 19.408 137.049 19.944C136.697 20.48 136.261 20.896 135.741 21.192C135.229 21.488 134.657 21.636 134.025 21.636C133.361 21.636 132.773 21.488 132.261 21.192C131.749 20.888 131.349 20.468 131.061 19.932C130.773 19.396 130.629 18.776 130.629 18.072C130.629 17.36 130.773 16.74 131.061 16.212C131.349 15.676 131.749 15.26 132.261 14.964C132.773 14.66 133.361 14.508 134.025 14.508C134.657 14.508 135.229 14.656 135.741 14.952C136.261 15.248 136.697 15.664 137.049 16.2C137.409 16.728 137.661 17.352 137.805 18.072ZM132.213 18.072C132.213 18.528 132.305 18.932 132.489 19.284C132.681 19.628 132.941 19.9 133.269 20.1C133.597 20.292 133.973 20.388 134.397 20.388C134.829 20.388 135.229 20.292 135.597 20.1C135.965 19.9 136.289 19.628 136.569 19.284C136.857 18.932 137.085 18.528 137.253 18.072C137.085 17.616 136.857 17.216 136.569 16.872C136.289 16.52 135.965 16.248 135.597 16.056C135.229 15.856 134.829 15.756 134.397 15.756C133.973 15.756 133.597 15.856 133.269 16.056C132.941 16.248 132.681 16.52 132.489 16.872C132.305 17.216 132.213 17.616 132.213 18.072ZM147.466 19.404C147.466 19.86 147.338 20.256 147.082 20.592C146.826 20.928 146.438 21.188 145.918 21.372C145.398 21.548 144.746 21.636 143.962 21.636C143.154 21.636 142.454 21.536 141.862 21.336C141.27 21.128 140.81 20.84 140.482 20.472C140.162 20.096 139.99 19.664 139.966 19.176H141.55C141.598 19.432 141.726 19.66 141.934 19.86C142.15 20.052 142.43 20.2 142.774 20.304C143.126 20.408 143.526 20.46 143.974 20.46C144.622 20.46 145.11 20.384 145.438 20.232C145.766 20.072 145.93 19.832 145.93 19.512C145.93 19.296 145.818 19.132 145.594 19.02C145.378 18.908 144.966 18.824 144.358 18.768L143.026 18.648C142.306 18.584 141.738 18.456 141.322 18.264C140.906 18.064 140.61 17.824 140.434 17.544C140.258 17.256 140.17 16.952 140.17 16.632C140.17 16.168 140.314 15.78 140.602 15.468C140.89 15.156 141.29 14.92 141.802 14.76C142.314 14.592 142.91 14.508 143.59 14.508C144.294 14.508 144.922 14.608 145.474 14.808C146.026 15 146.466 15.272 146.794 15.624C147.122 15.968 147.306 16.368 147.346 16.824H145.762C145.73 16.64 145.634 16.464 145.474 16.296C145.322 16.12 145.086 15.976 144.766 15.864C144.454 15.744 144.034 15.684 143.506 15.684C142.946 15.684 142.506 15.756 142.186 15.9C141.874 16.044 141.718 16.256 141.718 16.536C141.718 16.712 141.814 16.864 142.006 16.992C142.198 17.112 142.554 17.196 143.074 17.244L144.79 17.4C145.478 17.464 146.014 17.588 146.398 17.772C146.79 17.948 147.066 18.176 147.226 18.456C147.386 18.736 147.466 19.052 147.466 19.404ZM158.243 21.468L157.979 18.948L158.291 18.072L157.979 17.208L158.243 14.676H159.851L159.491 18.072L159.851 21.468H158.243ZM158.723 18.072C158.571 18.784 158.319 19.408 157.967 19.944C157.615 20.48 157.179 20.896 156.659 21.192C156.147 21.488 155.575 21.636 154.943 21.636C154.279 21.636 153.691 21.488 153.179 21.192C152.667 20.888 152.267 20.468 151.979 19.932C151.691 19.396 151.547 18.776 151.547 18.072C151.547 17.36 151.691 16.74 151.979 16.212C152.267 15.676 152.667 15.26 153.179 14.964C153.691 14.66 154.279 14.508 154.943 14.508C155.575 14.508 156.147 14.656 156.659 14.952C157.179 15.248 157.615 15.664 157.967 16.2C158.327 16.728 158.579 17.352 158.723 18.072ZM153.131 18.072C153.131 18.528 153.223 18.932 153.407 19.284C153.599 19.628 153.859 19.9 154.187 20.1C154.515 20.292 154.891 20.388 155.315 20.388C155.747 20.388 156.147 20.292 156.515 20.1C156.883 19.9 157.207 19.628 157.487 19.284C157.775 18.932 158.003 18.528 158.171 18.072C158.003 17.616 157.775 17.216 157.487 16.872C157.207 16.52 156.883 16.248 156.515 16.056C156.147 15.856 155.747 15.756 155.315 15.756C154.891 15.756 154.515 15.856 154.187 16.056C153.859 16.248 153.599 16.52 153.407 16.872C153.223 17.216 153.131 17.616 153.131 18.072ZM160.584 15.876V15.168L162.036 14.796L162.684 12.9H163.596V14.676H166.752V15.876H163.596V18.816C163.596 19.384 163.716 19.784 163.956 20.016C164.204 20.24 164.604 20.352 165.156 20.352C165.508 20.352 165.82 20.316 166.092 20.244C166.364 20.164 166.624 20.052 166.872 19.908V21.192C166.664 21.296 166.368 21.396 165.984 21.492C165.608 21.588 165.22 21.636 164.82 21.636C164.156 21.636 163.62 21.528 163.212 21.312C162.804 21.088 162.504 20.784 162.312 20.4C162.128 20.008 162.036 19.56 162.036 19.056V15.876H160.584ZM172.095 19.404V18.096H178.383V19.404H172.095ZM176.271 12.468L180.591 21.468H178.899L174.975 13.068H175.587L171.663 21.468H169.971L174.291 12.468H176.271ZM184.024 21.636C183.4 21.636 182.868 21.508 182.428 21.252C181.996 20.996 181.664 20.628 181.432 20.148C181.2 19.668 181.084 19.096 181.084 18.432V14.676H182.644V18.192C182.644 18.896 182.804 19.432 183.124 19.8C183.452 20.16 183.92 20.34 184.528 20.34C184.968 20.34 185.344 20.244 185.656 20.052C185.976 19.86 186.224 19.588 186.4 19.236C186.576 18.876 186.664 18.46 186.664 17.988L187.204 18.288C187.14 18.984 186.964 19.584 186.676 20.088C186.388 20.584 186.016 20.968 185.56 21.24C185.104 21.504 184.592 21.636 184.024 21.636ZM187.06 21.468L186.664 19.02V14.676H188.224V19.26L188.62 21.468H187.06ZM197.001 19.404C197.001 19.86 196.873 20.256 196.617 20.592C196.361 20.928 195.973 21.188 195.453 21.372C194.933 21.548 194.281 21.636 193.497 21.636C192.689 21.636 191.989 21.536 191.397 21.336C190.805 21.128 190.345 20.84 190.017 20.472C189.697 20.096 189.525 19.664 189.501 19.176H191.085C191.133 19.432 191.261 19.66 191.469 19.86C191.685 20.052 191.965 20.2 192.309 20.304C192.661 20.408 193.061 20.46 193.509 20.46C194.157 20.46 194.645 20.384 194.973 20.232C195.301 20.072 195.465 19.832 195.465 19.512C195.465 19.296 195.353 19.132 195.129 19.02C194.913 18.908 194.501 18.824 193.893 18.768L192.561 18.648C191.841 18.584 191.273 18.456 190.857 18.264C190.441 18.064 190.145 17.824 189.969 17.544C189.793 17.256 189.705 16.952 189.705 16.632C189.705 16.168 189.849 15.78 190.137 15.468C190.425 15.156 190.825 14.92 191.337 14.76C191.849 14.592 192.445 14.508 193.125 14.508C193.829 14.508 194.457 14.608 195.009 14.808C195.561 15 196.001 15.272 196.329 15.624C196.657 15.968 196.841 16.368 196.881 16.824H195.297C195.265 16.64 195.169 16.464 195.009 16.296C194.857 16.12 194.621 15.976 194.301 15.864C193.989 15.744 193.569 15.684 193.041 15.684C192.481 15.684 192.041 15.756 191.721 15.9C191.409 16.044 191.253 16.256 191.253 16.536C191.253 16.712 191.349 16.864 191.541 16.992C191.733 17.112 192.089 17.196 192.609 17.244L194.325 17.4C195.013 17.464 195.549 17.588 195.933 17.772C196.325 17.948 196.601 18.176 196.761 18.456C196.921 18.736 197.001 19.052 197.001 19.404ZM197.44 15.876V15.168L198.892 14.796L199.54 12.9H200.452V14.676H203.608V15.876H200.452V18.816C200.452 19.384 200.572 19.784 200.812 20.016C201.06 20.24 201.46 20.352 202.012 20.352C202.364 20.352 202.676 20.316 202.948 20.244C203.22 20.164 203.48 20.052 203.728 19.908V21.192C203.52 21.296 203.224 21.396 202.84 21.492C202.464 21.588 202.076 21.636 201.676 21.636C201.012 21.636 200.476 21.528 200.068 21.312C199.66 21.088 199.36 20.784 199.168 20.4C198.984 20.008 198.892 19.56 198.892 19.056V15.876H197.44ZM204.864 14.628L205.644 14.772L206.424 14.628V21.468H204.864V14.628ZM205.644 13.776C205.348 13.776 205.104 13.696 204.912 13.536C204.72 13.368 204.624 13.152 204.624 12.888C204.624 12.624 204.72 12.412 204.912 12.252C205.104 12.084 205.348 12 205.644 12C205.948 12 206.192 12.084 206.376 12.252C206.568 12.412 206.664 12.624 206.664 12.888C206.664 13.152 206.568 13.368 206.376 13.536C206.192 13.696 205.948 13.776 205.644 13.776ZM207.751 14.676H209.311L209.719 17.124V21.468H208.159V16.896L207.751 14.676ZM212.419 14.508C213.059 14.508 213.603 14.636 214.051 14.892C214.499 15.148 214.839 15.516 215.071 15.996C215.311 16.468 215.431 17.04 215.431 17.712V21.468H213.871V17.964C213.871 17.252 213.703 16.716 213.367 16.356C213.039 15.988 212.555 15.804 211.915 15.804C211.475 15.804 211.087 15.904 210.751 16.104C210.423 16.296 210.167 16.568 209.983 16.92C209.807 17.272 209.719 17.684 209.719 18.156L209.167 17.856C209.239 17.152 209.423 16.552 209.719 16.056C210.015 15.56 210.395 15.18 210.859 14.916C211.323 14.644 211.843 14.508 212.419 14.508Z" fill="white"/>
</svg>
