<svg width="974" height="187" viewBox="0 0 974 187" fill="none" xmlns="http://www.w3.org/2000/svg">
<path d="M10.624 84L-4.78029e-05 -0.224007H21.76L24.448 53.28H24.96L28.032 -0.224007H45.312L48.512 53.28H49.024L51.968 -0.224007H69.76L59.136 84H37.248L34.688 36.256H34.176L31.104 84H10.624ZM92.743 84L91.975 68.896H86.343L85.575 84H66.503L77.895 -0.224007H104.263L115.783 84H92.743ZM86.983 55.968H91.335L89.543 18.592H88.775L86.983 55.968ZM119.667 84V-0.224007H144.115L151.283 52.512H151.539L149.875 -0.224007H165.747V84H143.219L134.003 25.504H133.747L135.539 84H119.667ZM177.433 84V17.568H168.857V-0.224007H205.081V17.568H196.505V84H177.433ZM231.308 84V17.568H222.732V-0.224007H258.956V17.568H250.38V84H231.308ZM282.162 84.896C266.29 84.896 260.402 74.912 260.402 41.504C260.402 10.016 266.29 -1.12 282.162 -1.12C298.034 -1.12 303.922 10.016 303.922 41.504C303.922 74.4 298.162 84.896 282.162 84.896ZM282.162 67.104C284.082 67.104 284.85 65.312 284.85 41.504C284.85 18.848 284.082 16.672 282.162 16.672C280.114 16.672 279.474 18.848 279.474 41.504C279.474 65.312 280.114 67.104 282.162 67.104ZM326.042 84V-0.224007H346.266C363.418 -0.224007 366.874 8.864 366.874 21.536C366.874 30.496 365.722 37.024 359.194 39.584V39.712C366.874 42.144 368.538 49.952 368.538 59.424C368.538 75.808 364.826 84 348.442 84H326.042ZM345.114 35.616H346.522C349.21 35.616 349.978 33.824 349.978 26.016C349.978 17.696 349.466 15.648 346.65 15.648H345.114V35.616ZM345.114 68.128H347.034C349.722 68.128 350.362 66.976 350.362 56.736C350.362 48.928 349.722 47.008 346.778 47.008H345.114V68.128ZM373.417 84V-0.224007H404.393V17.568H392.489V35.616H402.217V47.776H392.489V66.208H405.161V84H373.417ZM425.792 84V-0.224007H450.24L457.408 52.512H457.664L456 -0.224007H471.872V84H449.344L440.128 25.504H439.872L441.664 84H425.792ZM498.662 84.896C482.79 84.896 476.902 74.912 476.902 41.504C476.902 10.016 482.79 -1.12 498.662 -1.12C514.534 -1.12 520.422 10.016 520.422 41.504C520.422 74.4 514.662 84.896 498.662 84.896ZM498.662 67.104C500.582 67.104 501.35 65.312 501.35 41.504C501.35 18.848 500.582 16.672 498.662 16.672C496.614 16.672 495.974 18.848 495.974 41.504C495.974 65.312 496.614 67.104 498.662 67.104ZM530.433 84V17.568H521.857V-0.224007H558.081V17.568H549.505V84H530.433ZM561.551 84V-0.224007H580.623V84H561.551ZM586.667 84V-0.224007H617.515V17.568H605.739V36.896H615.211V50.336H605.739V84H586.667ZM621.426 84V-0.224007H640.498V84H621.426ZM646.542 84V-0.224007H677.518V17.568H665.614V35.616H675.342V47.776H665.614V66.208H678.286V84H646.542ZM681.792 84V-0.224007H700.48C720.064 -0.224007 725.44 8.864 725.44 41.632C725.44 77.472 719.936 84 702.016 84H681.792ZM700.864 66.208H702.528C706.112 66.208 706.368 64.8 706.368 41.632C706.368 19.616 705.728 17.568 702.144 17.568H700.864V66.208ZM772.118 84L771.35 68.896H765.718L764.95 84H745.878L757.27 -0.224007H783.638L795.158 84H772.118ZM766.358 55.968H770.71L768.918 18.592H768.15L766.358 55.968ZM799.042 84V-0.224007H819.266C836.418 -0.224007 839.874 8.864 839.874 21.536C839.874 30.496 838.722 37.024 832.194 39.584V39.712C839.874 42.144 841.538 49.952 841.538 59.424C841.538 75.808 837.826 84 821.442 84H799.042ZM818.114 35.616H819.522C822.21 35.616 822.978 33.824 822.978 26.016C822.978 17.696 822.466 15.648 819.65 15.648H818.114V35.616ZM818.114 68.128H820.034C822.722 68.128 823.362 66.976 823.362 56.736C823.362 48.928 822.722 47.008 819.778 47.008H818.114V68.128ZM867.537 84.896C851.665 84.896 845.777 74.912 845.777 41.504C845.777 10.016 851.665 -1.12 867.537 -1.12C883.409 -1.12 889.297 10.016 889.297 41.504C889.297 74.4 883.537 84.896 867.537 84.896ZM867.537 67.104C869.457 67.104 870.225 65.312 870.225 41.504C870.225 18.848 869.457 16.672 867.537 16.672C865.489 16.672 864.849 18.848 864.849 41.504C864.849 65.312 865.489 67.104 867.537 67.104ZM914.132 84.896C901.46 84.896 894.036 79.52 894.036 58.4V-0.224007H913.108V58.272C913.108 66.208 914.26 66.976 915.924 66.976C917.588 66.976 918.612 66.208 918.612 58.272V-0.224007H934.1V58.4C934.1 79.52 926.804 84.896 914.132 84.896ZM945.433 84V17.568H936.857V-0.224007H973.081V17.568H964.505V84H945.433ZM1.79195 186V101.776H20.48C40.064 101.776 45.44 110.864 45.44 143.632C45.44 179.472 39.936 186 22.016 186H1.79195ZM20.864 168.208H22.528C26.112 168.208 26.368 166.8 26.368 143.632C26.368 121.616 25.728 119.568 22.144 119.568H20.864V168.208ZM50.801 186V101.776H69.873V186H50.801ZM100.493 186L99.725 170.896H94.093L93.325 186H74.253L85.645 101.776H112.013L123.533 186H100.493ZM94.733 157.968H99.085L97.293 120.592H96.525L94.733 157.968ZM127.417 186V101.776H147.641C164.793 101.776 168.249 110.864 168.249 123.536C168.249 132.496 167.097 139.024 160.569 141.584V141.712C168.249 144.144 169.913 151.952 169.913 161.424C169.913 177.808 166.201 186 149.817 186H127.417ZM146.489 137.616H147.897C150.585 137.616 151.353 135.824 151.353 128.016C151.353 119.696 150.841 117.648 148.025 117.648H146.489V137.616ZM146.489 170.128H148.409C151.097 170.128 151.737 168.976 151.737 158.736C151.737 150.928 151.097 149.008 148.153 149.008H146.489V170.128ZM195.912 186.896C180.04 186.896 174.152 176.912 174.152 143.504C174.152 112.016 180.04 100.88 195.912 100.88C211.784 100.88 217.672 112.016 217.672 143.504C217.672 176.4 211.912 186.896 195.912 186.896ZM195.912 169.104C197.832 169.104 198.6 167.312 198.6 143.504C198.6 120.848 197.832 118.672 195.912 118.672C193.864 118.672 193.224 120.848 193.224 143.504C193.224 167.312 193.864 169.104 195.912 169.104ZM222.667 186V101.776H241.739V168.208H250.827V186H222.667ZM274.787 186.896C258.915 186.896 253.027 176.912 253.027 143.504C253.027 112.016 258.915 100.88 274.787 100.88C290.659 100.88 296.547 112.016 296.547 143.504C296.547 176.4 290.787 186.896 274.787 186.896ZM274.787 169.104C276.707 169.104 277.475 167.312 277.475 143.504C277.475 120.848 276.707 118.672 274.787 118.672C272.739 118.672 272.099 120.848 272.099 143.504C272.099 167.312 272.739 169.104 274.787 169.104ZM318.667 186V101.776H349.643V119.568H337.739V137.616H347.467V149.776H337.739V168.208H350.411V186H318.667ZM363.645 186L352.125 101.776H374.781L377.853 164.496H378.493L381.821 101.776H401.021L389.373 186H363.645ZM404.917 186V101.776H435.893V119.568H423.989V137.616H433.717V149.776H423.989V168.208H436.661V186H404.917ZM440.167 186V101.776H464.615L471.783 154.512H472.039L470.375 101.776H486.247V186H463.719L454.503 127.504H454.247L456.039 186H440.167ZM497.933 186V119.568H489.357V101.776H525.581V119.568H517.005V186H497.933ZM547.367 186.896C530.983 186.896 527.143 177.808 527.143 156.432H543.783C543.783 169.872 544.295 172.048 546.727 172.048C548.647 172.048 549.287 170.768 549.287 163.216C549.287 158.096 548.775 156.304 547.495 154.896C546.215 153.616 543.655 152.208 540.967 150.672C538.535 149.392 534.823 147.216 532.263 144.272C529.447 141.2 527.143 135.312 527.143 126.096C527.143 108.56 534.439 100.88 547.367 100.88C563.239 100.88 566.951 107.92 566.951 131.984H551.079C551.079 117.392 550.695 115.728 548.903 115.728C546.983 115.728 546.215 117.392 546.215 124.048C546.215 129.936 546.727 132.368 548.135 133.648C549.287 134.928 552.231 136.592 555.431 138.256C558.759 140.048 562.215 142.352 564.135 145.04C566.951 149.008 568.231 154 568.231 161.808C568.231 180.24 562.215 186.896 547.367 186.896ZM590.301 186V101.776H609.373V186H590.301ZM615.417 186V101.776H639.865L647.033 154.512H647.289L645.625 101.776H661.497V186H638.969L629.753 127.504H629.497L631.289 186H615.417ZM708.868 186L708.1 170.896H702.468L701.7 186H682.628L694.02 101.776H720.388L731.908 186H708.868ZM703.108 157.968H707.46L705.668 120.592H704.9L703.108 157.968ZM753.507 186.896C740.835 186.896 733.411 181.52 733.411 160.4V101.776H752.483V160.272C752.483 168.208 753.635 168.976 755.299 168.976C756.963 168.976 757.987 168.208 757.987 160.272V101.776H773.475V160.4C773.475 181.52 766.179 186.896 753.507 186.896ZM797.992 186.896C781.608 186.896 777.768 177.808 777.768 156.432H794.408C794.408 169.872 794.92 172.048 797.352 172.048C799.272 172.048 799.912 170.768 799.912 163.216C799.912 158.096 799.4 156.304 798.12 154.896C796.84 153.616 794.28 152.208 791.592 150.672C789.16 149.392 785.448 147.216 782.888 144.272C780.072 141.2 777.768 135.312 777.768 126.096C777.768 108.56 785.064 100.88 797.992 100.88C813.864 100.88 817.576 107.92 817.576 131.984H801.704C801.704 117.392 801.32 115.728 799.528 115.728C797.608 115.728 796.84 117.392 796.84 124.048C796.84 129.936 797.352 132.368 798.76 133.648C799.912 134.928 802.856 136.592 806.056 138.256C809.384 140.048 812.84 142.352 814.76 145.04C817.576 149.008 818.856 154 818.856 161.808C818.856 180.24 812.84 186.896 797.992 186.896ZM828.933 186V119.568H820.357V101.776H856.581V119.568H848.005V186H828.933ZM860.051 186V101.776H879.123V186H860.051ZM885.167 186V101.776H909.615L916.783 154.512H917.039L915.375 101.776H931.247V186H908.719L899.503 127.504H899.247L901.039 186H885.167ZM940.885 160.016V138.896H951.637C952.021 142.736 952.661 144.912 954.325 144.912C956.245 144.912 956.885 142.096 956.885 130.704C956.885 117.776 956.373 114.576 954.325 114.576C952.533 114.576 951.637 116.88 951.637 126.864V131.856H937.941C937.685 130.064 937.557 127.12 937.557 124.304C937.557 105.488 943.573 100.112 954.197 100.112C965.973 100.112 970.965 107.664 970.965 129.936C970.965 149.904 966.229 157.2 959.573 157.2C954.581 157.2 952.661 154.128 951.637 150.16H951.509V160.016H940.885ZM939.093 186V165.776H954.325V186H939.093Z" fill="#D9D9D9"/>
</svg>
