<svg width="179" height="42" viewBox="0 0 179 42" fill="none" xmlns="http://www.w3.org/2000/svg">
<rect x="0.5" y="0.5" width="178" height="41" rx="20.5" stroke="white"/>
<path d="M38.5001 29.3334C43.1025 29.3334 46.8334 25.6025 46.8334 21.0001C46.8334 16.3977 43.1025 12.6667 38.5001 12.6667C33.8977 12.6667 30.1667 16.3977 30.1667 21.0001C30.1667 25.6025 33.8977 29.3334 38.5001 29.3334Z" fill="#D9D9D9"/>
<path d="M36.8333 17.6667L41.8333 21.0001L36.8333 24.3334V17.6667Z" fill="#080607"/>
<path d="M65.308 25.4H64.708L67.468 17H69.124L66.076 26H64.06L61.024 17.756H61.768L58.732 26H56.716L53.668 17H55.336L58.084 25.4L57.508 25.388L60.544 17H62.26L65.308 25.4ZM70.6963 23.936V22.628H76.9843V23.936H70.6963ZM74.8723 17L79.1923 26H77.5003L73.5763 17.6H74.1883L70.2643 26H68.5723L72.8923 17H74.8723ZM81.6229 17.732H83.2069V26H81.6229V17.732ZM77.9029 17H86.9269V18.392H77.9029V17ZM97.1523 22.436C97.0723 23.172 96.8123 23.824 96.3723 24.392C95.9403 24.952 95.3723 25.388 94.6683 25.7C93.9643 26.012 93.1603 26.168 92.2563 26.168C91.2483 26.168 90.3643 25.972 89.6043 25.58C88.8443 25.188 88.2523 24.644 87.8283 23.948C87.4043 23.244 87.1923 22.428 87.1923 21.5C87.1923 20.572 87.4043 19.76 87.8283 19.064C88.2523 18.36 88.8443 17.812 89.6043 17.42C90.3643 17.028 91.2483 16.832 92.2563 16.832C93.1603 16.832 93.9643 16.988 94.6683 17.3C95.3723 17.612 95.9403 18.048 96.3723 18.608C96.8123 19.168 97.0723 19.82 97.1523 20.564H95.5563C95.4683 20.084 95.2763 19.672 94.9803 19.328C94.6923 18.984 94.3163 18.72 93.8523 18.536C93.3883 18.344 92.8523 18.248 92.2443 18.248C91.5403 18.248 90.9283 18.38 90.4083 18.644C89.8963 18.908 89.5003 19.284 89.2203 19.772C88.9403 20.26 88.8003 20.836 88.8003 21.5C88.8003 22.164 88.9403 22.74 89.2203 23.228C89.5003 23.716 89.8963 24.092 90.4083 24.356C90.9283 24.62 91.5403 24.752 92.2443 24.752C92.8523 24.752 93.3883 24.66 93.8523 24.476C94.3163 24.292 94.6923 24.028 94.9803 23.684C95.2763 23.332 95.4683 22.916 95.5563 22.436H97.1523ZM98.6057 17H100.19V26H98.6057V17ZM105.926 17H107.51V26H105.926V17ZM99.4577 20.768H106.682V22.16H99.4577V20.768ZM121.043 25.04L120.395 25.112V17H121.931V26H119.915L113.603 17.888L114.239 17.816V26H112.703V17H114.767L121.043 25.04ZM128.622 26.168C127.598 26.168 126.698 25.972 125.922 25.58C125.146 25.188 124.542 24.644 124.11 23.948C123.678 23.244 123.462 22.428 123.462 21.5C123.462 20.572 123.678 19.76 124.11 19.064C124.542 18.36 125.146 17.812 125.922 17.42C126.698 17.028 127.598 16.832 128.622 16.832C129.646 16.832 130.546 17.028 131.322 17.42C132.098 17.812 132.702 18.36 133.134 19.064C133.566 19.76 133.782 20.572 133.782 21.5C133.782 22.428 133.566 23.244 133.134 23.948C132.702 24.644 132.098 25.188 131.322 25.58C130.546 25.972 129.646 26.168 128.622 26.168ZM128.622 24.752C129.35 24.752 129.978 24.62 130.506 24.356C131.034 24.092 131.442 23.716 131.73 23.228C132.026 22.74 132.174 22.164 132.174 21.5C132.174 20.836 132.026 20.26 131.73 19.772C131.442 19.284 131.034 18.908 130.506 18.644C129.978 18.38 129.35 18.248 128.622 18.248C127.902 18.248 127.274 18.38 126.738 18.644C126.21 18.908 125.798 19.284 125.502 19.772C125.214 20.26 125.07 20.836 125.07 21.5C125.07 22.164 125.214 22.74 125.502 23.228C125.798 23.716 126.21 24.092 126.738 24.356C127.274 24.62 127.902 24.752 128.622 24.752ZM145.828 25.4H145.228L147.988 17H149.644L146.596 26H144.58L141.544 17.756H142.288L139.252 26H137.236L134.188 17H135.856L138.604 25.4L138.028 25.388L141.064 17H142.78L145.828 25.4Z" fill="white"/>
</svg>
