<svg width="833" height="292" viewBox="0 0 833 292" fill="none" xmlns="http://www.w3.org/2000/svg">
<path d="M17.8 131.6L1.19998 2.6226e-05H35.2L39.4 83.6H40.2L45 2.6226e-05H72L77 83.6H77.8L82.4 2.6226e-05H110.2L93.6 131.6H59.4L55.4 57H54.6L49.8 131.6H17.8ZM116.305 131.6V2.6226e-05H164.705V27.8H146.105V56H161.305V75H146.105V103.8H165.905V131.6H116.305ZM236.541 131.6L235.341 108H226.541L225.341 131.6H195.541L213.341 2.6226e-05H254.541L272.541 131.6H236.541ZM227.541 87.8H234.341L231.541 29.4H230.341L227.541 87.8ZM278.609 131.6V2.6226e-05H312.409C340.009 2.6226e-05 346.809 12.2 346.809 39.2C346.809 56.8 344.009 66.4 333.209 70.2V70.4C343.809 73.4 346.809 80.4 346.809 91.8V131.6H317.009V89.6C317.009 83.8 315.209 82.2 311.209 82.2H308.409V131.6H278.609ZM308.409 64.4H311.009C315.809 64.4 317.009 62.6 317.009 47.4C317.009 30.2 316.209 27.8 311.209 27.8H308.409V64.4ZM355.172 131.6V2.6226e-05H403.572V27.8H384.972V56H400.172V75H384.972V103.8H404.772V131.6H355.172ZM13.4 291.6V187.8H-2.43951e-05V160H56.6V187.8H43.2V291.6H13.4ZM61.4219 291.6V160H109.822V187.8H91.2219V216H106.422V235H91.2219V263.8H111.022V291.6H61.4219ZM113.5 291.6L130.7 223.8L114.7 160H150.9L155.7 203.6L160.9 160H189.5L174.1 223.8L190.7 291.6H154.9L149.7 246.4L144.1 291.6H113.5ZM235.173 291.6L233.973 268H225.173L223.973 291.6H194.173L211.973 160H253.173L271.173 291.6H235.173ZM226.173 247.8H232.973L230.173 189.4H228.973L226.173 247.8ZM305.289 293C279.689 293 273.689 278.8 273.689 245.4H299.689C299.689 266.4 300.489 269.8 304.289 269.8C307.289 269.8 308.289 267.8 308.289 256C308.289 248 307.489 245.2 305.489 243C303.489 241 299.489 238.8 295.289 236.4C291.489 234.4 285.689 231 281.689 226.4C277.289 221.6 273.689 212.4 273.689 198C273.689 170.6 285.089 158.6 305.289 158.6C330.089 158.6 335.889 169.6 335.889 207.2H311.089C311.089 184.4 310.489 181.8 307.689 181.8C304.689 181.8 303.489 184.4 303.489 194.8C303.489 204 304.289 207.8 306.489 209.8C308.289 211.8 312.889 214.4 317.889 217C323.089 219.8 328.489 223.4 331.489 227.6C335.889 233.8 337.889 241.6 337.889 253.8C337.889 282.6 328.489 293 305.289 293ZM371.773 291.6V160H400.973C431.573 160 439.973 174.2 439.973 225.4C439.973 281.4 431.373 291.6 403.373 291.6H371.773ZM401.573 263.8H404.173C409.773 263.8 410.173 261.6 410.173 225.4C410.173 191 409.173 187.8 403.573 187.8H401.573V263.8ZM448.35 291.6V160H478.15V291.6H448.35ZM525.994 291.6L524.794 268H515.994L514.794 291.6H484.994L502.794 160H543.994L561.994 291.6H525.994ZM516.994 247.8H523.794L520.994 189.4H519.794L516.994 247.8ZM568.062 291.6V160H599.662C626.462 160 631.862 174.2 631.862 194C631.862 208 630.062 218.2 619.862 222.2V222.4C631.862 226.2 634.462 238.4 634.462 253.2C634.462 278.8 628.662 291.6 603.062 291.6H568.062ZM597.862 216H600.062C604.262 216 605.462 213.2 605.462 201C605.462 188 604.662 184.8 600.262 184.8H597.862V216ZM597.862 266.8H600.862C605.062 266.8 606.062 265 606.062 249C606.062 236.8 605.062 233.8 600.462 233.8H597.862V266.8ZM675.086 293C650.286 293 641.086 277.4 641.086 225.2C641.086 176 650.286 158.6 675.086 158.6C699.886 158.6 709.086 176 709.086 225.2C709.086 276.6 700.086 293 675.086 293ZM675.086 265.2C678.086 265.2 679.286 262.4 679.286 225.2C679.286 189.8 678.086 186.4 675.086 186.4C671.886 186.4 670.886 189.8 670.886 225.2C670.886 262.4 671.886 265.2 675.086 265.2ZM716.891 291.6V160H746.691V263.8H760.891V291.6H716.891ZM798.328 293C773.528 293 764.328 277.4 764.328 225.2C764.328 176 773.528 158.6 798.328 158.6C823.128 158.6 832.328 176 832.328 225.2C832.328 276.6 823.328 293 798.328 293ZM798.328 265.2C801.328 265.2 802.528 262.4 802.528 225.2C802.528 189.8 801.328 186.4 798.328 186.4C795.128 186.4 794.128 189.8 794.128 225.2C794.128 262.4 795.128 265.2 798.328 265.2Z" fill="white"/>
</svg>
